<mxfile modified="2021-04-25T08:20:50.215Z" host="app.diagrams.net" agent="5.0 (Macintosh; Intel Mac OS X 10_14) AppleWebKit/605.1.15 (KHTML, like Gecko) Version/12.0 Safari/605.1.15" etag="y07YVfQPuc5TnP7E62I4" version="14.6.6" type="github">
  <diagram id="l8hXMBHkgcEJcSW0mbfh" name="Page-1">
    <mxGraphModel dx="977" dy="662" grid="0" gridSize="10" guides="1" tooltips="1" connect="1" arrows="1" fold="1" page="1" pageScale="1" pageWidth="1169" pageHeight="827" math="0" shadow="0">
      <root>
        <mxCell id="0" />
        <mxCell id="1" parent="0" />
        <mxCell id="8--HhbSZYtI3ddgJnD71-24" style="edgeStyle=none;rounded=0;orthogonalLoop=1;jettySize=auto;html=1;sourcePerimeterSpacing=5;endArrow=none;endFill=0;targetPerimeterSpacing=5;entryX=0;entryY=1;entryDx=0;entryDy=0;exitX=1;exitY=0.5;exitDx=0;exitDy=0;" parent="1" source="3Vs0N3CxHDZo5n-XGlqR-2" target="3Vs0N3CxHDZo5n-XGlqR-1" edge="1">
          <mxGeometry relative="1" as="geometry">
            <mxPoint x="150" y="250" as="sourcePoint" />
            <mxPoint x="238" y="237.55555555555554" as="targetPoint" />
          </mxGeometry>
        </mxCell>
        <mxCell id="8--HhbSZYtI3ddgJnD71-23" style="edgeStyle=none;rounded=0;orthogonalLoop=1;jettySize=auto;html=1;sourcePerimeterSpacing=5;endArrow=none;endFill=0;targetPerimeterSpacing=5;" parent="1" source="8--HhbSZYtI3ddgJnD71-16" edge="1">
          <mxGeometry relative="1" as="geometry">
            <mxPoint x="260" y="210" as="targetPoint" />
          </mxGeometry>
        </mxCell>
        <mxCell id="8--HhbSZYtI3ddgJnD71-16" value="User" style="shape=image;verticalLabelPosition=bottom;verticalAlign=top;imageAspect=0;aspect=fixed;image=data:image/svg+xml,PHN2ZyB4bWxucz0iaHR0cDovL3d3dy53My5vcmcvMjAwMC9zdmciIHZlcnNpb249IjEiIHZpZXdCb3g9IjAgMCA0OCA0OCIgZW5hYmxlLWJhY2tncm91bmQ9Im5ldyAwIDAgNDggNDgiPiYjeGE7ICAgIDxwb2x5Z29uIGZpbGw9IiNGRjk4MDAiIHBvaW50cz0iMjQsMzcgMTksMzEgMTksMjUgMjksMjUgMjksMzEiLz4mI3hhOyAgICA8ZyBmaWxsPSIjRkZBNzI2Ij4mI3hhOyAgICAgICAgPGNpcmNsZSBjeD0iMzMiIGN5PSIxOSIgcj0iMiIvPiYjeGE7ICAgICAgICA8Y2lyY2xlIGN4PSIxNSIgY3k9IjE5IiByPSIyIi8+JiN4YTsgICAgPC9nPiYjeGE7ICAgIDxwYXRoIGZpbGw9IiNGRkI3NEQiIGQ9Ik0zMywxM2MwLTcuNi0xOC01LTE4LDBjMCwxLjEsMCw1LjksMCw3YzAsNSw0LDksOSw5czktNCw5LTlDMzMsMTguOSwzMywxNC4xLDMzLDEzeiIvPiYjeGE7ICAgIDxwYXRoIGZpbGw9IiM0MjQyNDIiIGQ9Ik0yNCw0Yy02LjEsMC0xMCw0LjktMTAsMTFjMCwwLjgsMCwyLjMsMCwyLjNsMiwxLjd2LTVsMTItNGw0LDR2NWwyLTEuN2MwLDAsMC0xLjUsMC0yLjNjMC00LTEtOC02LTlsLTEtMiBIMjR6Ii8+JiN4YTsgICAgPGcgZmlsbD0iIzc4NDcxOSI+JiN4YTsgICAgICAgIDxjaXJjbGUgY3g9IjI4IiBjeT0iMTkiIHI9IjEiLz4mI3hhOyAgICAgICAgPGNpcmNsZSBjeD0iMjAiIGN5PSIxOSIgcj0iMSIvPiYjeGE7ICAgIDwvZz4mI3hhOyAgICA8cG9seWdvbiBmaWxsPSIjZmZmIiBwb2ludHM9IjI0LDQzIDE5LDMxIDI0LDMyIDI5LDMxIi8+JiN4YTsgICAgPHBvbHlnb24gZmlsbD0iI0QzMkYyRiIgcG9pbnRzPSIyMywzNSAyMi4zLDM5LjUgMjQsNDMuNSAyNS43LDM5LjUgMjUsMzUgMjYsMzQgMjQsMzIgMjIsMzQiLz4mI3hhOyAgICA8cGF0aCBmaWxsPSIjNTQ2RTdBIiBkPSJNMjksMzFMMjksMzFsLTUsMTJsLTUtMTJjMCwwLTExLDItMTEsMTNoMzJDNDAsMzMsMjksMzEsMjksMzF6Ii8+JiN4YTs8L3N2Zz4=;labelBackgroundColor=#ffffff;" parent="1" vertex="1">
          <mxGeometry x="230" y="90" width="48" height="48" as="geometry" />
        </mxCell>
        <mxCell id="3Vs0N3CxHDZo5n-XGlqR-19" value="" style="edgeStyle=none;rounded=0;orthogonalLoop=1;jettySize=auto;html=1;" parent="1" edge="1">
          <mxGeometry relative="1" as="geometry">
            <mxPoint x="310" y="246" as="sourcePoint" />
            <mxPoint x="440" y="260" as="targetPoint" />
          </mxGeometry>
        </mxCell>
        <mxCell id="3Vs0N3CxHDZo5n-XGlqR-1" value="" style="shape=image;verticalLabelPosition=bottom;verticalAlign=top;imageAspect=0;aspect=fixed;image=data:image/svg+xml,PHN2ZyB4bWxucz0iaHR0cDovL3d3dy53My5vcmcvMjAwMC9zdmciIHZlcnNpb249IjEiIHZpZXdCb3g9IjAgMCA0OCA0OCIgZW5hYmxlLWJhY2tncm91bmQ9Im5ldyAwIDAgNDggNDgiPiYjeGE7ICAgIDxyZWN0IHg9IjEzIiB5PSIzMCIgZmlsbD0iI0JGMzYwQyIgd2lkdGg9IjIyIiBoZWlnaHQ9IjEyIi8+JiN4YTsgICAgPGcgZmlsbD0iI0ZGQTcyNiI+JiN4YTsgICAgICAgIDxjaXJjbGUgY3g9IjEwIiBjeT0iMjYiIHI9IjQiLz4mI3hhOyAgICAgICAgPGNpcmNsZSBjeD0iMzgiIGN5PSIyNiIgcj0iNCIvPiYjeGE7ICAgIDwvZz4mI3hhOyAgICA8cGF0aCBmaWxsPSIjRkZCNzREIiBkPSJNMzksMTljMC0xMi43LTMwLTguMy0zMCwwYzAsMS44LDAsOC4yLDAsMTBjMCw4LjMsNi43LDE1LDE1LDE1czE1LTYuNywxNS0xNUMzOSwyNy4yLDM5LDIwLjgsMzksMTl6Ii8+JiN4YTsgICAgPGcgZmlsbD0iIzc4NDcxOSI+JiN4YTsgICAgICAgIDxjaXJjbGUgY3g9IjMwIiBjeT0iMjYiIHI9IjIiLz4mI3hhOyAgICAgICAgPGNpcmNsZSBjeD0iMTgiIGN5PSIyNiIgcj0iMiIvPiYjeGE7ICAgIDwvZz4mI3hhOyAgICA8cGF0aCBmaWxsPSIjRkY1NzIyIiBkPSJNMjQsMkMxNS41LDIsMyw3LjgsMywzNS42TDEzLDQyVjI0bDE2LjgtOS44TDM1LDIxdjIxbDEwLTguMmMwLTUuNi0wLjktMjktMTUuNC0yOUwyOC4yLDJIMjR6Ii8+JiN4YTsgICAgPHBhdGggZmlsbD0iIzc1NzU3NSIgZD0iTTQ1LDI0Yy0wLjYsMC0xLDAuNC0xLDF2LTdjMC04LjgtNy4yLTE2LTE2LTE2aC05Yy0wLjYsMC0xLDAuNC0xLDFzMC40LDEsMSwxaDljNy43LDAsMTQsNi4zLDE0LDE0djEwIGMwLDAuNiwwLjQsMSwxLDFzMS0wLjQsMS0xdjJjMCwzLjktMy4xLDctNyw3SDI0Yy0wLjYsMC0xLDAuNC0xLDFzMC40LDEsMSwxaDEzYzUsMCw5LTQsOS05di01QzQ2LDI0LjQsNDUuNiwyNCw0NSwyNHoiLz4mI3hhOyAgICA8ZyBmaWxsPSIjMzc0NzRGIj4mI3hhOyAgICAgICAgPHBhdGggZD0iTTQ1LDIyaC0xYy0xLjEsMC0yLDAuOS0yLDJ2NGMwLDEuMSwwLjksMiwyLDJoMWMxLjEsMCwyLTAuOSwyLTJ2LTRDNDcsMjIuOSw0Ni4xLDIyLDQ1LDIyeiIvPiYjeGE7ICAgICAgICA8Y2lyY2xlIGN4PSIyNCIgY3k9IjM4IiByPSIyIi8+JiN4YTsgICAgPC9nPiYjeGE7PC9zdmc+" parent="1" vertex="1">
          <mxGeometry x="240" y="212" width="48" height="48" as="geometry" />
        </mxCell>
        <mxCell id="3Vs0N3CxHDZo5n-XGlqR-2" value="" style="shape=image;verticalLabelPosition=bottom;verticalAlign=top;imageAspect=0;aspect=fixed;image=data:image/svg+xml,PHN2ZyB4bWxucz0iaHR0cDovL3d3dy53My5vcmcvMjAwMC9zdmciIHZlcnNpb249IjEiIHZpZXdCb3g9IjAgMCA0OCA0OCIgZW5hYmxlLWJhY2tncm91bmQ9Im5ldyAwIDAgNDggNDgiPiYjeGE7ICAgIDxnIGZpbGw9IiNEMUM0RTkiPiYjeGE7ICAgICAgICA8cGF0aCBkPSJNMzgsN0gxMEM4LjksNyw4LDcuOSw4LDl2NmMwLDEuMSwwLjksMiwyLDJoMjhjMS4xLDAsMi0wLjksMi0yVjlDNDAsNy45LDM5LjEsNywzOCw3eiIvPiYjeGE7ICAgICAgICA8cGF0aCBkPSJNMzgsMTlIMTBjLTEuMSwwLTIsMC45LTIsMnY2YzAsMS4xLDAuOSwyLDIsMmgyOGMxLjEsMCwyLTAuOSwyLTJ2LTZDNDAsMTkuOSwzOS4xLDE5LDM4LDE5eiIvPiYjeGE7ICAgICAgICA8cGF0aCBkPSJNMzgsMzFIMTBjLTEuMSwwLTIsMC45LTIsMnY2YzAsMS4xLDAuOSwyLDIsMmgyOGMxLjEsMCwyLTAuOSwyLTJ2LTZDNDAsMzEuOSwzOS4xLDMxLDM4LDMxeiIvPiYjeGE7ICAgIDwvZz4mI3hhOzwvc3ZnPg==" parent="1" vertex="1">
          <mxGeometry x="152" y="260" width="48" height="48" as="geometry" />
        </mxCell>
        <mxCell id="3Vs0N3CxHDZo5n-XGlqR-3" value="" style="shape=image;verticalLabelPosition=bottom;verticalAlign=top;imageAspect=0;aspect=fixed;image=data:image/svg+xml,PHN2ZyB4bWxucz0iaHR0cDovL3d3dy53My5vcmcvMjAwMC9zdmciIHZlcnNpb249IjEiIHZpZXdCb3g9IjAgMCA0OCA0OCIgZW5hYmxlLWJhY2tncm91bmQ9Im5ldyAwIDAgNDggNDgiPiYjeGE7ICAgIDxwYXRoIGZpbGw9IiMyMTk2RjMiIGQ9Ik0zNyw0MEgxMWwtNiw2VjEyYzAtMy4zLDIuNy02LDYtNmgyNmMzLjMsMCw2LDIuNyw2LDZ2MjJDNDMsMzcuMyw0MC4zLDQwLDM3LDQweiIvPiYjeGE7ICAgIDxnIGZpbGw9IiNmZmYiPiYjeGE7ICAgICAgICA8cmVjdCB4PSIyMiIgeT0iMjAiIHdpZHRoPSI0IiBoZWlnaHQ9IjExIi8+JiN4YTsgICAgICAgIDxjaXJjbGUgY3g9IjI0IiBjeT0iMTUiIHI9IjIiLz4mI3hhOyAgICA8L2c+JiN4YTs8L3N2Zz4=" parent="1" vertex="1">
          <mxGeometry x="260" y="62" width="28" height="28" as="geometry" />
        </mxCell>
        <mxCell id="3Vs0N3CxHDZo5n-XGlqR-9" value="DataBase" style="text;html=1;align=center;verticalAlign=middle;resizable=0;points=[];autosize=1;strokeColor=none;" parent="1" vertex="1">
          <mxGeometry x="141" y="308" width="70" height="20" as="geometry" />
        </mxCell>
        <mxCell id="3Vs0N3CxHDZo5n-XGlqR-11" value="Storage" style="shape=image;verticalLabelPosition=bottom;verticalAlign=top;imageAspect=0;aspect=fixed;image=data:image/svg+xml,PHN2ZyB4bWxucz0iaHR0cDovL3d3dy53My5vcmcvMjAwMC9zdmciIHZlcnNpb249IjEiIHZpZXdCb3g9IjAgMCA0OCA0OCIgZW5hYmxlLWJhY2tncm91bmQ9Im5ldyAwIDAgNDggNDgiPiYjeGE7ICAgIDxyZWN0IHg9IjEyIiB5PSI0NCIgZmlsbD0iIzI2MzIzOCIgd2lkdGg9IjQiIGhlaWdodD0iMiIvPiYjeGE7ICAgIDxyZWN0IHg9IjMyIiB5PSI0NCIgZmlsbD0iIzI2MzIzOCIgd2lkdGg9IjQiIGhlaWdodD0iMiIvPiYjeGE7ICAgIDxwYXRoIGZpbGw9IiM2MDdEOEIiIGQ9Ik04LDQxVjdjMC0yLjIsMS44LTQsNC00aDI0YzIuMiwwLDQsMS44LDQsNHYzNGMwLDIuMi0xLjgsNC00LDRIMTJDOS44LDQ1LDgsNDMuMiw4LDQxeiIvPiYjeGE7ICAgIDxwYXRoIGZpbGw9IiNCMEJFQzUiIGQ9Ik0xMiwxN1Y4YzAtMC42LDAuNC0xLDEtMWgyMmMwLjYsMCwxLDAuNCwxLDF2OUgxMnoiLz4mI3hhOyAgICA8cmVjdCB4PSIxMiIgeT0iMTkiIGZpbGw9IiNCMEJFQzUiIHdpZHRoPSIyNCIgaGVpZ2h0PSIxMCIvPiYjeGE7ICAgIDxwYXRoIGZpbGw9IiNCMEJFQzUiIGQ9Ik0xMiw0MHYtOWgyNHY5YzAsMC42LTAuNCwxLTEsMUgxM0MxMi40LDQxLDEyLDQwLjYsMTIsNDB6Ii8+JiN4YTsgICAgPHJlY3QgeD0iMjAiIHk9IjExIiBmaWxsPSIjNTQ2RTdBIiB3aWR0aD0iOCIgaGVpZ2h0PSIyIi8+JiN4YTsgICAgPHJlY3QgeD0iMjAiIHk9IjIzIiBmaWxsPSIjNTQ2RTdBIiB3aWR0aD0iOCIgaGVpZ2h0PSIyIi8+JiN4YTsgICAgPHJlY3QgeD0iMjAiIHk9IjM1IiBmaWxsPSIjNTQ2RTdBIiB3aWR0aD0iOCIgaGVpZ2h0PSIyIi8+JiN4YTs8L3N2Zz4=;labelBackgroundColor=#ffffff;" parent="1" vertex="1">
          <mxGeometry x="452" y="240" width="48" height="48" as="geometry" />
        </mxCell>
        <mxCell id="3Vs0N3CxHDZo5n-XGlqR-14" value="&amp;nbsp;filled .docx template" style="text;html=1;align=center;verticalAlign=middle;resizable=0;points=[];autosize=1;strokeColor=none;rotation=5;" parent="1" vertex="1">
          <mxGeometry x="315" y="220" width="120" height="20" as="geometry" />
        </mxCell>
        <mxCell id="3Vs0N3CxHDZo5n-XGlqR-15" value="" style="shape=image;verticalLabelPosition=bottom;verticalAlign=top;imageAspect=0;aspect=fixed;image=data:image/svg+xml,PHN2ZyB4bWxucz0iaHR0cDovL3d3dy53My5vcmcvMjAwMC9zdmciIHZlcnNpb249IjEiIHZpZXdCb3g9IjAgMCA0OCA0OCIgZW5hYmxlLWJhY2tncm91bmQ9Im5ldyAwIDAgNDggNDgiPiYjeGE7ICAgIDxwYXRoIGZpbGw9IiM0MkE1RjUiIGQ9Ik0zOSw0NUg5YzAsMC0zLTAuMS0zLThoMzZDNDIsNDQuOSwzOSw0NSwzOSw0NXoiLz4mI3hhOyAgICA8cmVjdCB4PSI4IiB5PSIzIiBmaWxsPSIjOTBDQUY5IiB3aWR0aD0iMzIiIGhlaWdodD0iMzQiLz4mI3hhOyAgICA8ZyBmaWxsPSIjMTk3NkQyIj4mI3hhOyAgICAgICAgPHJlY3QgeD0iMTgiIHk9IjE1IiB3aWR0aD0iMTYiIGhlaWdodD0iMiIvPiYjeGE7ICAgICAgICA8cmVjdCB4PSIxOCIgeT0iMTkiIHdpZHRoPSIxNiIgaGVpZ2h0PSIyIi8+JiN4YTsgICAgICAgIDxyZWN0IHg9IjE4IiB5PSIyMyIgd2lkdGg9IjE2IiBoZWlnaHQ9IjIiLz4mI3hhOyAgICAgICAgPHJlY3QgeD0iMTgiIHk9IjI3IiB3aWR0aD0iMTYiIGhlaWdodD0iMiIvPiYjeGE7ICAgICAgICA8cmVjdCB4PSIxOCIgeT0iMzEiIHdpZHRoPSIxNiIgaGVpZ2h0PSIyIi8+JiN4YTsgICAgPC9nPiYjeGE7ICAgIDxnIGZpbGw9IiMxOTc2RDIiPiYjeGE7ICAgICAgICA8cmVjdCB4PSIxNCIgeT0iMTUiIHdpZHRoPSIyIiBoZWlnaHQ9IjIiLz4mI3hhOyAgICAgICAgPHJlY3QgeD0iMTQiIHk9IjE5IiB3aWR0aD0iMiIgaGVpZ2h0PSIyIi8+JiN4YTsgICAgICAgIDxyZWN0IHg9IjE0IiB5PSIyMyIgd2lkdGg9IjIiIGhlaWdodD0iMiIvPiYjeGE7ICAgICAgICA8cmVjdCB4PSIxNCIgeT0iMjciIHdpZHRoPSIyIiBoZWlnaHQ9IjIiLz4mI3hhOyAgICAgICAgPHJlY3QgeD0iMTQiIHk9IjMxIiB3aWR0aD0iMiIgaGVpZ2h0PSIyIi8+JiN4YTsgICAgPC9nPiYjeGE7PC9zdmc+;direction=east;rotation=6;" parent="1" vertex="1">
          <mxGeometry x="364" y="184" width="36" height="36" as="geometry" />
        </mxCell>
        <mxCell id="3Vs0N3CxHDZo5n-XGlqR-21" value="" style="aspect=fixed;perimeter=ellipsePerimeter;html=1;align=center;shadow=0;dashed=0;spacingTop=3;image;image=img/lib/active_directory/sql_server.svg;" parent="1" vertex="1">
          <mxGeometry x="640" y="220" width="38.5" height="50" as="geometry" />
        </mxCell>
        <mxCell id="3Vs0N3CxHDZo5n-XGlqR-22" value="server" style="text;html=1;align=center;verticalAlign=middle;resizable=0;points=[];autosize=1;strokeColor=none;" parent="1" vertex="1">
          <mxGeometry x="634.25" y="270" width="50" height="20" as="geometry" />
        </mxCell>
        <mxCell id="3Vs0N3CxHDZo5n-XGlqR-23" value="&amp;nbsp;filled .docx template" style="text;html=1;align=center;verticalAlign=middle;resizable=0;points=[];autosize=1;strokeColor=none;rotation=352;" parent="1" vertex="1">
          <mxGeometry x="500" y="220" width="120" height="20" as="geometry" />
        </mxCell>
        <mxCell id="3Vs0N3CxHDZo5n-XGlqR-24" value="" style="shape=image;verticalLabelPosition=bottom;verticalAlign=top;imageAspect=0;aspect=fixed;image=data:image/svg+xml,PHN2ZyB4bWxucz0iaHR0cDovL3d3dy53My5vcmcvMjAwMC9zdmciIHZlcnNpb249IjEiIHZpZXdCb3g9IjAgMCA0OCA0OCIgZW5hYmxlLWJhY2tncm91bmQ9Im5ldyAwIDAgNDggNDgiPiYjeGE7ICAgIDxwYXRoIGZpbGw9IiM0MkE1RjUiIGQ9Ik0zOSw0NUg5YzAsMC0zLTAuMS0zLThoMzZDNDIsNDQuOSwzOSw0NSwzOSw0NXoiLz4mI3hhOyAgICA8cmVjdCB4PSI4IiB5PSIzIiBmaWxsPSIjOTBDQUY5IiB3aWR0aD0iMzIiIGhlaWdodD0iMzQiLz4mI3hhOyAgICA8ZyBmaWxsPSIjMTk3NkQyIj4mI3hhOyAgICAgICAgPHJlY3QgeD0iMTgiIHk9IjE1IiB3aWR0aD0iMTYiIGhlaWdodD0iMiIvPiYjeGE7ICAgICAgICA8cmVjdCB4PSIxOCIgeT0iMTkiIHdpZHRoPSIxNiIgaGVpZ2h0PSIyIi8+JiN4YTsgICAgICAgIDxyZWN0IHg9IjE4IiB5PSIyMyIgd2lkdGg9IjE2IiBoZWlnaHQ9IjIiLz4mI3hhOyAgICAgICAgPHJlY3QgeD0iMTgiIHk9IjI3IiB3aWR0aD0iMTYiIGhlaWdodD0iMiIvPiYjeGE7ICAgICAgICA8cmVjdCB4PSIxOCIgeT0iMzEiIHdpZHRoPSIxNiIgaGVpZ2h0PSIyIi8+JiN4YTsgICAgPC9nPiYjeGE7ICAgIDxnIGZpbGw9IiMxOTc2RDIiPiYjeGE7ICAgICAgICA8cmVjdCB4PSIxNCIgeT0iMTUiIHdpZHRoPSIyIiBoZWlnaHQ9IjIiLz4mI3hhOyAgICAgICAgPHJlY3QgeD0iMTQiIHk9IjE5IiB3aWR0aD0iMiIgaGVpZ2h0PSIyIi8+JiN4YTsgICAgICAgIDxyZWN0IHg9IjE0IiB5PSIyMyIgd2lkdGg9IjIiIGhlaWdodD0iMiIvPiYjeGE7ICAgICAgICA8cmVjdCB4PSIxNCIgeT0iMjciIHdpZHRoPSIyIiBoZWlnaHQ9IjIiLz4mI3hhOyAgICAgICAgPHJlY3QgeD0iMTQiIHk9IjMxIiB3aWR0aD0iMiIgaGVpZ2h0PSIyIi8+JiN4YTsgICAgPC9nPiYjeGE7PC9zdmc+;direction=east;rotation=352;" parent="1" vertex="1">
          <mxGeometry x="539.75" y="184" width="36" height="36" as="geometry" />
        </mxCell>
        <mxCell id="uAl5o1h4yHD2kVrCcqB5-2" value="" style="shape=image;html=1;verticalAlign=top;verticalLabelPosition=bottom;labelBackgroundColor=#ffffff;imageAspect=0;aspect=fixed;image=https://cdn1.iconfinder.com/data/icons/ecommerce-and-business-icon-set/128/qr-code-iphone.png" parent="1" vertex="1">
          <mxGeometry x="420" y="70" width="68" height="68" as="geometry" />
        </mxCell>
        <mxCell id="uAl5o1h4yHD2kVrCcqB5-3" value="" style="shape=image;html=1;verticalAlign=top;verticalLabelPosition=bottom;labelBackgroundColor=#ffffff;imageAspect=0;aspect=fixed;image=https://cdn2.iconfinder.com/data/icons/sale-and-discount/32/Sale_and_Discount-06-128.png" parent="1" vertex="1">
          <mxGeometry x="630.25" y="83" width="40" height="40" as="geometry" />
        </mxCell>
        <mxCell id="uAl5o1h4yHD2kVrCcqB5-4" value="QR code" style="text;html=1;align=center;verticalAlign=middle;resizable=0;points=[];autosize=1;strokeColor=none;" parent="1" vertex="1">
          <mxGeometry x="620.25" y="123" width="60" height="20" as="geometry" />
        </mxCell>
        <mxCell id="uAl5o1h4yHD2kVrCcqB5-6" style="edgeStyle=none;rounded=0;orthogonalLoop=1;jettySize=auto;html=1;sourcePerimeterSpacing=5;endArrow=none;endFill=0;targetPerimeterSpacing=5;" parent="1" edge="1">
          <mxGeometry relative="1" as="geometry">
            <mxPoint x="656" y="210" as="targetPoint" />
            <mxPoint x="656" y="150" as="sourcePoint" />
          </mxGeometry>
        </mxCell>
        <mxCell id="uAl5o1h4yHD2kVrCcqB5-7" value="" style="shape=image;verticalLabelPosition=bottom;verticalAlign=top;imageAspect=0;aspect=fixed;image=data:image/svg+xml,PHN2ZyB4bWxucz0iaHR0cDovL3d3dy53My5vcmcvMjAwMC9zdmciIHZlcnNpb249IjEiIHZpZXdCb3g9IjAgMCA0OCA0OCIgZW5hYmxlLWJhY2tncm91bmQ9Im5ldyAwIDAgNDggNDgiPiYjeGE7ICAgIDxnIGZpbGw9IiMxNTY1QzAiPiYjeGE7ICAgICAgICA8cG9seWdvbiBwb2ludHM9IjQ2LjEsMjQgMzMsMzUgMzMsMTMiLz4mI3hhOyAgICAgICAgPHJlY3QgeD0iMTAiIHk9IjIwIiB3aWR0aD0iNCIgaGVpZ2h0PSI4Ii8+JiN4YTsgICAgICAgIDxyZWN0IHg9IjQiIHk9IjIwIiB3aWR0aD0iNCIgaGVpZ2h0PSI4Ii8+JiN4YTsgICAgICAgIDxyZWN0IHg9IjE2IiB5PSIyMCIgd2lkdGg9IjQiIGhlaWdodD0iOCIvPiYjeGE7ICAgICAgICA8cmVjdCB4PSIyMiIgeT0iMjAiIHdpZHRoPSIxNCIgaGVpZ2h0PSI4Ii8+JiN4YTsgICAgPC9nPiYjeGE7PC9zdmc+;direction=west;" parent="1" vertex="1">
          <mxGeometry x="330" y="96" width="34" height="34" as="geometry" />
        </mxCell>
        <mxCell id="uAl5o1h4yHD2kVrCcqB5-8" value="" style="shape=image;verticalLabelPosition=bottom;verticalAlign=top;imageAspect=0;aspect=fixed;image=data:image/svg+xml,PHN2ZyB4bWxucz0iaHR0cDovL3d3dy53My5vcmcvMjAwMC9zdmciIHZlcnNpb249IjEiIHZpZXdCb3g9IjAgMCA0OCA0OCIgZW5hYmxlLWJhY2tncm91bmQ9Im5ldyAwIDAgNDggNDgiPiYjeGE7ICAgIDxnIGZpbGw9IiMxNTY1QzAiPiYjeGE7ICAgICAgICA8cG9seWdvbiBwb2ludHM9IjQ2LjEsMjQgMzMsMzUgMzMsMTMiLz4mI3hhOyAgICAgICAgPHJlY3QgeD0iMTAiIHk9IjIwIiB3aWR0aD0iNCIgaGVpZ2h0PSI4Ii8+JiN4YTsgICAgICAgIDxyZWN0IHg9IjQiIHk9IjIwIiB3aWR0aD0iNCIgaGVpZ2h0PSI4Ii8+JiN4YTsgICAgICAgIDxyZWN0IHg9IjE2IiB5PSIyMCIgd2lkdGg9IjQiIGhlaWdodD0iOCIvPiYjeGE7ICAgICAgICA8cmVjdCB4PSIyMiIgeT0iMjAiIHdpZHRoPSIxNCIgaGVpZ2h0PSI4Ii8+JiN4YTsgICAgPC9nPiYjeGE7PC9zdmc+;direction=east;" parent="1" vertex="1">
          <mxGeometry x="540" y="97" width="34" height="34" as="geometry" />
        </mxCell>
        <mxCell id="uAl5o1h4yHD2kVrCcqB5-9" value="" style="aspect=fixed;html=1;points=[];align=center;image;fontSize=12;image=img/lib/mscae/Log_Analytics_Workspaces.svg;" parent="1" vertex="1">
          <mxGeometry x="736" y="267" width="41" height="41" as="geometry" />
        </mxCell>
        <mxCell id="uAl5o1h4yHD2kVrCcqB5-10" style="edgeStyle=none;rounded=0;orthogonalLoop=1;jettySize=auto;html=1;sourcePerimeterSpacing=5;endArrow=none;endFill=0;targetPerimeterSpacing=5;" parent="1" edge="1">
          <mxGeometry relative="1" as="geometry">
            <mxPoint x="685" y="264" as="sourcePoint" />
            <mxPoint x="726" y="281" as="targetPoint" />
          </mxGeometry>
        </mxCell>
        <mxCell id="uAl5o1h4yHD2kVrCcqB5-11" value="logs" style="text;html=1;align=center;verticalAlign=middle;resizable=0;points=[];autosize=1;strokeColor=none;" parent="1" vertex="1">
          <mxGeometry x="740.5" y="315" width="32" height="18" as="geometry" />
        </mxCell>
        <mxCell id="uAl5o1h4yHD2kVrCcqB5-12" value="" style="edgeStyle=none;rounded=0;orthogonalLoop=1;jettySize=auto;html=1;" parent="1" edge="1">
          <mxGeometry relative="1" as="geometry">
            <mxPoint x="500" y="264" as="sourcePoint" />
            <mxPoint x="629" y="244" as="targetPoint" />
          </mxGeometry>
        </mxCell>
        <mxCell id="uAl5o1h4yHD2kVrCcqB5-13" value="" style="shape=image;html=1;verticalAlign=top;verticalLabelPosition=bottom;labelBackgroundColor=#ffffff;imageAspect=0;aspect=fixed;image=https://cdn4.iconfinder.com/data/icons/ios-web-user-interface-multi-circle-flat-vol-3/512/Authorisation_lock_padlock_password_privacy_safe_security-128.png" parent="1" vertex="1">
          <mxGeometry x="330" y="46" width="29" height="29" as="geometry" />
        </mxCell>
        <mxCell id="uAl5o1h4yHD2kVrCcqB5-14" value="authorization" style="text;html=1;align=center;verticalAlign=middle;resizable=0;points=[];autosize=1;strokeColor=none;" parent="1" vertex="1">
          <mxGeometry x="305" y="79" width="79" height="18" as="geometry" />
        </mxCell>
        <mxCell id="UPgU8Q4hXtMWbDRdo-gn-1" value="" style="pointerEvents=1;shadow=0;dashed=1;html=1;strokeColor=none;fillColor=#505050;labelPosition=center;verticalLabelPosition=bottom;verticalAlign=top;outlineConnect=0;align=center;shape=mxgraph.office.concepts.sign_up;" vertex="1" parent="1">
          <mxGeometry x="154" y="184" width="30" height="28" as="geometry" />
        </mxCell>
        <mxCell id="UPgU8Q4hXtMWbDRdo-gn-2" value="" style="shape=image;verticalLabelPosition=bottom;verticalAlign=top;imageAspect=0;aspect=fixed;image=data:image/svg+xml,PHN2ZyB4bWxucz0iaHR0cDovL3d3dy53My5vcmcvMjAwMC9zdmciIHZlcnNpb249IjEiIHZpZXdCb3g9IjAgMCA0OCA0OCIgZW5hYmxlLWJhY2tncm91bmQ9Im5ldyAwIDAgNDggNDgiPiYjeGE7ICAgIDxwb2x5Z29uIGZpbGw9IiM5MENBRjkiIHBvaW50cz0iNDAsNDUgOCw0NSA4LDMgMzAsMyA0MCwxMyIvPiYjeGE7ICAgIDxwb2x5Z29uIGZpbGw9IiNFMUY1RkUiIHBvaW50cz0iMzguNSwxNCAyOSwxNCAyOSw0LjUiLz4mI3hhOyAgICA8ZyBmaWxsPSIjMTk3NkQyIj4mI3hhOyAgICAgICAgPHJlY3QgeD0iMTYiIHk9IjIxIiB3aWR0aD0iMTciIGhlaWdodD0iMiIvPiYjeGE7ICAgICAgICA8cmVjdCB4PSIxNiIgeT0iMjUiIHdpZHRoPSIxMyIgaGVpZ2h0PSIyIi8+JiN4YTsgICAgICAgIDxyZWN0IHg9IjE2IiB5PSIyOSIgd2lkdGg9IjE3IiBoZWlnaHQ9IjIiLz4mI3hhOyAgICAgICAgPHJlY3QgeD0iMTYiIHk9IjMzIiB3aWR0aD0iMTMiIGhlaWdodD0iMiIvPiYjeGE7ICAgIDwvZz4mI3hhOzwvc3ZnPg==;dashed=1;" vertex="1" parent="1">
          <mxGeometry x="171" y="133" width="36" height="36" as="geometry" />
        </mxCell>
        <mxCell id="UPgU8Q4hXtMWbDRdo-gn-3" value="" style="edgeStyle=none;rounded=0;orthogonalLoop=1;jettySize=auto;html=1;dashed=1;" edge="1" parent="1">
          <mxGeometry relative="1" as="geometry">
            <mxPoint x="223" y="150" as="sourcePoint" />
            <mxPoint x="186" y="253" as="targetPoint" />
          </mxGeometry>
        </mxCell>
      </root>
    </mxGraphModel>
  </diagram>
</mxfile>
